<svg width="600" height="600" viewBox="0 0 600 600" fill="none" xmlns="http://www.w3.org/2000/svg">
<g opacity="0.9">
<path d="M600 600H0V0H600V600Z" fill="#030D28"/>
<path d="M235.743 152.608V277.553C235.743 326.644 205.899 363.667 166.303 363.667C125.267 363.667 95.4728 327.449 95.4728 277.553V152.608H52V277.553C52 313.197 63.3909 345.902 84.0631 369.664C105.119 393.829 134.324 407.139 166.303 407.139C230.148 407.139 278.311 351.432 278.311 277.553V152.608H235.743Z" fill="url(#paint0_linear_260_1929)"/>
<path d="M335.113 185.412C313.331 208.889 301.333 241.61 301.333 277.553V451H344.353V371.143C365.797 394.065 395.408 407.139 427.676 407.139C496.272 407.139 548 351.432 548 277.553C548 202.47 496.238 147.971 424.902 147.971C389.396 147.971 357.496 161.262 335.113 185.412ZM344.353 277.553C344.353 236.08 369.56 191.448 424.902 191.448C477.181 191.448 504.524 234.769 504.524 277.553C504.524 326.644 470.294 363.667 424.902 363.667C378.993 363.667 344.353 326.644 344.353 277.553Z" fill="url(#paint1_linear_260_1929)"/>
</g>
<defs>
<linearGradient id="paint0_linear_260_1929" x1="-1.35099" y1="348.064" x2="517.265" y2="62.7795" gradientUnits="userSpaceOnUse">
<stop stop-color="#DE22FF"/>
<stop offset="1" stop-color="#7A5AFF"/>
</linearGradient>
<linearGradient id="paint1_linear_260_1929" x1="67.8759" y1="473.91" x2="586.491" y2="188.626" gradientUnits="userSpaceOnUse">
<stop stop-color="#DE22FF"/>
<stop offset="1" stop-color="#7A5AFF"/>
</linearGradient>
</defs>
</svg>
